PathFileType	4	(X/Y/Z)	C:\Users\Basilio\Documents\Thesis Gigler\squatting_fais\c3dfiles\038\SJ_pre5\markers_experimental.trc
DataRate	CameraRate	NumFrames	NumMarkers	Units	OrigDataRate	OrigDataStartFrame	OrigNumFrames
200.000000	200.000000	4	61	mm	200.000000	188	1510
Frame#	Time	FHD			LBHD			RBHD			C7			T10			CLAV			LSHO			LUUPA			LMUPA			LDUPA			LLEP			LMEP			LRAD			LUL			LRFIN			RSHO			RUPA1			RMUPA			RDUPA			RLEP			RMEP			RRAD			RUL			RUFIN			LASI			RASI			USACR			LSACR			RSACR			LTHI1			LTHI2			LTHI3			LTHI4			LLFC			LMFC			LTIB1			LTIB2			LTIB3			LTIB4			LLMAL			LMMAL			LHEE			LMT1			LMT2			LMT5			RTHI			RTHI2			RTHI3			RTHI4			RLFC			RMFC			RTIB1			RTIB2			RTIB3			RTIB4			RLMAL			RMMAL			RHEE			RMT1			RMT2			RMT5			
		X1	Y1	Z1	X2	Y2	Z2	X3	Y3	Z3	X4	Y4	Z4	X5	Y5	Z5	X6	Y6	Z6	X7	Y7	Z7	X8	Y8	Z8	X9	Y9	Z9	X10	Y10	Z10	X11	Y11	Z11	X12	Y12	Z12	X13	Y13	Z13	X14	Y14	Z14	X15	Y15	Z15	X16	Y16	Z16	X17	Y17	Z17	X18	Y18	Z18	X19	Y19	Z19	X20	Y20	Z20	X21	Y21	Z21	X22	Y22	Z22	X23	Y23	Z23	X24	Y24	Z24	X25	Y25	Z25	X26	Y26	Z26	X27	Y27	Z27	X28	Y28	Z28	X29	Y29	Z29	X30	Y30	Z30	X31	Y31	Z31	X32	Y32	Z32	X33	Y33	Z33	X34	Y34	Z34	X35	Y35	Z35	X36	Y36	Z36	X37	Y37	Z37	X38	Y38	Z38	X39	Y39	Z39	X40	Y40	Z40	X41	Y41	Z41	X42	Y42	Z42	X43	Y43	Z43	X44	Y44	Z44	X45	Y45	Z45	X46	Y46	Z46	X47	Y47	Z47	X48	Y48	Z48	X49	Y49	Z49	X50	Y50	Z50	X51	Y51	Z51	X52	Y52	Z52	X53	Y53	Z53	X54	Y54	Z54	X55	Y55	Z55	X56	Y56	Z56	X57	Y57	Z57	X58	Y58	Z58	X59	Y59	Z59	X60	Y60	Z60	X61	Y61	Z61	

189	0.9400000000000001	-232.1194152832032	1750.114868164063	-899.027282714844	-364.8365478515626	1652.441284179688	-959.362487792969	-355.4082641601563	1646.823364257813	-813.6121215820315	-397.0552368164064	1510.258056640625	-884.0135498046877	-436.879852294922	1227.999389648438	-883.2816162109377	-260.9192199707032	1462.724731445313	-897.3670654296877	-314.7735290527344	1510.185668945313	-1060.397583007813	-345.9457092285157	1341.079711914063	-1235.495239257813	-304.5797119140626	1314.912231445313	-1221.359741210938	-326.5808105468751	1281.155639648438	-1265.999145507813	-308.9336242675782	1218.978515625	-1280.168334960938	-387.9229736328126	1192.476684570313	-1267.650512695313	-313.1065979003907	1009.144287109375	-1077.0712890625	-266.0387268066407	970.752380371094	-1118.919921875	-302.7686462402344	972.3389892578127	-1016.148010253906	-292.7982177734376	1488.269897460938	-728.7952270507814	-290.2867736816407	1334.856567382813	-564.4669189453126	-271.3721923828126	1292.220092773438	-579.8759155273439	-288.5144958496094	1278.327270507813	-523.9088134765626	-280.0217285156251	1204.592895507813	-498.813690185547	-363.0599975585938	1190.381591796875	-494.2261352539064	-318.8981323242188	986.4981079101565	-664.2340698242189	-262.0895385742188	954.8772583007815	-633.0310058593751	-290.5167236328126	964.4180908203127	-729.2252807617189	-306.9277343750001	1016.876403808594	-1001.949584960938	-300.2368774414063	1023.926391601563	-756.4005737304689	-463.5775756835939	1097.489868164063	-877.7827758789065	-482.7911071777345	1069.699340820313	-904.5703735351565	-478.1749267578126	1068.887573242188	-847.1368408203127	-353.7293395996094	719.6408691406251	-1102.82080078125	-317.1537475585938	642.5264892578126	-1108.956665039063	-270.5857849121094	650.3821411132814	-1092.172607421875	-339.6215209960938	589.5031738281251	-1093.931518554688	-333.4689941406251	532.6544799804689	-1093.57568359375	-297.7164306640626	508.3069458007814	-984.488220214844	-301.6673278808594	336.9475402832032	-1055.148681640625	-365.7663574218751	307.4167480468751	-1111.951416015625	-325.3995056152344	297.2323303222657	-1092.125	-337.6365661621094	215.0542144775391	-1069.8271484375	-438.6328430175782	87.1956024169922	-1082.48046875	-382.1386718750001	96.94071197509768	-1022.899291992188	-470.7698364257814	44.50077438354493	-1023.063659667969	-266.3924560546876	48.42371368408205	-1084.359008789063	-278.3789367675782	49.69172286987306	-1133.625	-331.3524780273438	30.3477954864502	-1167.310546875	-367.6180725097657	770.0239257812502	-673.6526489257814	-328.9896850585938	716.6033935546876	-660.7601928710939	-295.8590698242188	719.6243896484376	-661.5903930664064	-352.3241577148438	633.9910278320314	-676.6322631835939	-328.7983703613282	504.2399902343751	-677.3940429687501	-306.1033020019532	499.0242309570314	-791.6851806640627	-300.5005187988282	324.1944885253907	-690.2007446289064	-392.8606567382814	256.8659362792969	-668.8804931640626	-345.2765502929688	253.4075164794922	-670.1624755859376	-336.4923400878907	200.6022186279297	-696.1163330078126	-425.2703857421876	93.73624420166017	-682.7515258789064	-376.4412841796876	91.5253372192383	-751.0832519531251	-465.5906372070314	41.76375198364259	-757.2794189453126	-263.3125915527344	48.2759132385254	-673.3165283203126	-280.7390747070313	52.91547775268556	-630.3886718750001	-336.8208007812501	34.85239028930665	-601.2356567382814	
190	0.9450000000000001	-232.0896148681641	1749.870361328125	-899.0818481445315	-364.6469116210938	1652.060546875	-959.3315429687502	-355.1640930175782	1646.390625	-813.618591308594	-396.6936950683595	1509.968139648438	-884.076599121094	-436.9737548828126	1227.892578125	-883.203063964844	-260.7117004394532	1462.175659179688	-897.3857421875002	-314.2840270996094	1509.682983398438	-1060.356689453125	-345.8400878906251	1340.870971679688	-1235.495727539063	-304.8331909179688	1314.40185546875	-1221.096069335938	-326.6481628417969	1280.8486328125	-1266.1142578125	-309.4229431152344	1218.639770507813	-1280.123657226563	-388.2298889160157	1192.288818359375	-1267.607177734375	-313.8421936035157	1008.876708984375	-1077.133911132813	-266.6318969726563	970.3983154296877	-1118.97265625	-303.3216857910157	972.1098632812502	-1016.1318359375	-292.4165954589844	1487.844970703125	-728.7680664062501	-290.1917724609376	1334.512939453125	-564.4181518554689	-271.4286804199219	1291.78466796875	-579.9243774414064	-288.5083007812501	1277.9814453125	-523.7657470703126	-280.1419067382813	1204.129272460938	-498.7153625488282	-363.1751708984376	1190.115356445313	-494.1615295410157	-319.3382873535157	986.2430419921877	-664.1768798828126	-262.6124572753907	954.5339355468752	-633.0170898437501	-291.5592346191407	964.1419067382815	-729.7396240234376	-307.4262390136719	1016.640441894531	-1002.05322265625	-300.8415222167969	1023.463256835938	-756.3684082031251	-464.1365051269532	1097.038208007813	-877.6938476562502	-483.2994384765626	1069.6474609375	-904.4312133789065	-478.7011718750001	1068.743041992188	-847.125427246094	-353.9008178710938	719.4807128906251	-1102.974731445313	-317.2324218750001	642.5266113281251	-1109.102661132813	-270.6660461425782	650.4396972656251	-1092.428344726563	-339.6150512695313	589.4048461914064	-1094.185424804688	-333.4855041503907	532.6215820312501	-1093.754150390625	-297.6505126953126	508.3106994628907	-984.7436523437502	-301.5814819335938	337.0057373046876	-1055.410034179688	-365.7113647460938	307.3650512695313	-1112.052734375	-325.2907409667969	297.1580505371094	-1092.34912109375	-337.6108398437501	214.9864501953126	-1069.961059570313	-438.635467529297	87.18392181396486	-1082.464721679688	-382.0748291015626	96.89591979980472	-1022.814392089844	-470.6883544921876	44.51192855834962	-1023.060852050781	-266.4240722656251	48.44506454467775	-1084.398071289063	-278.3809509277344	49.56535720825197	-1133.645874023438	-331.3792419433594	30.33815383911134	-1167.289306640625	-367.8322753906251	769.745056152344	-673.5833129882814	-329.1214904785157	716.4025878906251	-660.6298217773439	-296.1107788085938	719.4821777343751	-661.3087768554689	-352.3500671386719	633.8963012695314	-676.4633789062501	-328.5390319824219	504.1639099121095	-677.1804809570314	-305.8971862792969	498.9660949707032	-791.4300537109377	-300.3258972167969	324.1440124511719	-690.0711669921876	-392.7658691406251	256.8874511718751	-668.7670288085939	-345.1163330078126	253.3752899169922	-670.0139770507814	-336.4778747558594	200.2158355712891	-696.2075195312501	-425.299530029297	93.72262573242189	-682.7250366210939	-376.4366149902344	91.52233886718751	-751.0901489257814	-465.5963439941407	41.67887878417969	-757.3405761718751	-263.2906494140626	48.19715881347658	-673.3335571289064	-280.7702331542969	52.9230422973633	-630.4183959960939	-336.8680419921876	34.84140014648438	-601.2046508789064	
191	0.9500000000000001	-231.4677734375001	1749.269165039063	-899.2192993164065	-364.5688171386719	1651.162353515625	-959.372985839844	-355.0315246582032	1646.015258789063	-813.5161132812502	-396.2871398925782	1509.6904296875	-884.0523681640627	-437.0609436035157	1227.724731445313	-883.2125244140627	-260.4836120605469	1461.7841796875	-897.288513183594	-314.0050659179688	1509.238647460938	-1060.223022460938	-345.7687072753907	1340.61083984375	-1235.48974609375	-304.5175170898438	1314.034423828125	-1221.394775390625	-326.6246032714844	1280.57421875	-1266.130859375	-309.7929992675782	1218.3076171875	-1280.096435546875	-388.3777770996095	1192.009399414063	-1267.559692382813	-314.7046813964844	1008.566955566406	-1077.200561523438	-267.2204589843751	970.0950317382815	-1119.04541015625	-303.8092346191407	971.862243652344	-1016.216613769531	-292.1697998046876	1487.39501953125	-728.8029785156251	-290.0839233398438	1334.057739257813	-564.3460083007814	-271.2943725585938	1291.347412109375	-579.8483276367189	-288.5147705078126	1277.793334960938	-523.6448364257814	-280.2810363769532	1203.618041992188	-498.7171020507814	-363.3224487304688	1189.87548828125	-494.0720520019532	-319.8511962890626	986.131286621094	-664.3674926757814	-263.2605590820313	953.9874267578127	-633.2368164062501	-291.9928894042969	963.8220214843752	-729.7759399414064	-308.0129089355469	1016.348815917969	-1002.046936035156	-301.5014343261719	1023.0908203125	-756.2892456054689	-464.6924133300782	1096.817749023438	-877.5806884765627	-483.8453674316407	1069.499877929688	-904.407165527344	-479.2897949218751	1068.656127929688	-847.0671997070315	-354.1405029296876	719.3685913085939	-1103.0029296875	-317.3369750976563	642.4705810546876	-1109.280151367188	-270.7141418457032	650.4171752929689	-1092.644775390625	-339.5693969726563	589.2872314453126	-1094.386352539063	-333.3777465820313	532.5088500976564	-1093.969848632813	-297.5267944335938	508.3755798339845	-985.028015136719	-301.5327148437501	336.7471618652344	-1055.535522460938	-365.7163085937501	307.3085937500001	-1112.137817382813	-325.1716613769532	297.1358642578126	-1092.466674804688	-337.5283508300782	214.9486999511719	-1070.061279296875	-438.608856201172	87.1974563598633	-1082.50244140625	-382.0462036132813	96.91901397705081	-1022.880310058594	-470.6797790527345	44.51791381835938	-1023.077209472656	-266.4382019042969	48.39530563354494	-1084.377807617188	-278.4533691406251	49.58679962158205	-1133.686645507813	-331.0596313476563	29.98837471008301	-1167.284423828125	-368.0178527832032	769.484802246094	-673.5046997070314	-329.2813415527344	716.2290649414064	-660.4621582031251	-296.2797851562501	719.4339599609376	-661.1405639648439	-352.3852844238282	633.7318115234376	-676.3067626953126	-328.1804199218751	504.2763061523439	-676.8555297851564	-305.7084655761719	498.9295959472657	-791.1668701171877	-300.0945434570313	324.0401306152344	-689.9554443359376	-392.5517578125001	256.7958374023438	-668.6340942382814	-345.0021667480469	253.2251739501954	-669.8635864257814	-336.5108032226563	200.3140716552735	-696.0611572265626	-425.1701965332032	93.69239044189455	-682.7153320312501	-375.9815063476563	91.28401947021486	-750.9264526367189	-465.6062316894532	41.7074203491211	-757.3688964843751	-263.2824707031251	48.18684005737306	-673.3403320312501	-280.7876892089844	52.93468475341798	-630.4204101562501	-336.8392333984376	34.82666397094727	-601.2290649414064	
192	0.9550000000000001	-231.573471069336	1749.164428710938	-898.991149902344	-364.3936462402344	1650.761962890625	-959.3494873046877	-354.7664794921876	1645.429443359375	-813.4093017578127	-395.9343566894532	1509.454223632813	-884.0600585937502	-437.2048950195314	1227.638305664063	-883.192077636719	-260.2973022460938	1461.279663085938	-897.2395019531252	-313.6197204589844	1508.862915039063	-1060.1845703125	-345.6046142578126	1340.332885742188	-1235.497802734375	-304.5288696289063	1313.658569335938	-1221.420166015625	-326.6168823242188	1280.301879882813	-1266.182250976563	-309.9679260253907	1217.884399414063	-1280.011474609375	-388.7341308593751	1191.816162109375	-1267.612915039063	-315.7111511230469	1008.108581542969	-1077.300537109375	-267.9792480468751	969.6440429687502	-1118.974487304688	-304.2969360351563	971.647155761719	-1016.307434082031	-291.9210205078126	1487.010131835938	-728.8406372070314	-290.0349121093751	1333.5791015625	-564.3551635742189	-271.2702331542969	1290.797485351563	-579.7385253906251	-288.4540405273438	1277.338745117188	-523.6295166015626	-280.4019775390626	1203.251586914063	-498.7387084960939	-363.4916687011719	1189.580810546875	-494.043914794922	-320.2920837402344	985.8015136718752	-664.3552246093751	-263.7432250976563	953.5364379882815	-633.2762451171876	-292.4421081542969	963.5227661132815	-729.8071899414064	-308.6131896972657	1016.028930664063	-1002.024230957031	-302.0954895019532	1022.767822265625	-756.3718261718751	-465.2928466796876	1096.985595703125	-877.4322509765627	-484.3758544921876	1069.368774414063	-904.3391113281252	-479.8161010742189	1068.587280273438	-846.9974365234377	-354.3212585449219	719.1704101562501	-1103.216796875	-317.3597106933594	642.4240722656251	-1109.43017578125	-270.8342590332032	650.4520874023439	-1092.861572265625	-339.5566101074219	589.1915283203126	-1094.594604492188	-333.2682189941407	532.4417724609376	-1094.186157226563	-297.4191894531251	508.3059692382814	-985.2366943359377	-301.3593139648438	336.7719421386719	-1055.654296875	-365.6310424804688	307.3177490234376	-1112.270385742188	-325.0491638183594	297.0477600097657	-1092.662719726563	-337.4864501953126	214.9200897216797	-1070.128784179688	-438.5406494140626	86.90947723388673	-1082.61474609375	-382.1027221679688	96.88388824462893	-1022.919311523438	-470.6858215332032	44.51482772827149	-1023.065490722656	-266.3931274414063	48.45103073120119	-1084.396606445313	-278.4390869140626	49.59375762939455	-1133.651977539063	-331.4067687988282	30.33017158508301	-1167.284057617188	-368.2254943847657	769.2761840820315	-673.3653564453126	-329.3522949218751	716.0145263671876	-660.2490844726564	-296.4827880859376	719.3042602539064	-661.0164794921876	-352.0916748046876	633.6936035156251	-675.8223876953126	-327.8496704101563	504.1513977050782	-676.6040039062501	-305.4695434570313	498.8989562988282	-790.8609619140627	-299.9012451171876	323.8930969238282	-689.8057250976564	-392.3681640625001	256.7958068847657	-668.4944458007814	-344.8743591308594	253.0865020751954	-669.7457885742189	-336.2433471679688	200.0383911132813	-696.1062011718751	-425.2337646484376	93.73954010009767	-682.7706909179689	-376.3609619140626	91.57081604003908	-751.0820312500001	-465.5290527343751	41.74671173095704	-757.2990112304689	-263.2076110839844	48.34337615966798	-673.3236694335939	-280.7125244140626	52.9266815185547	-630.3948364257814	-336.8161926269532	34.84173583984376	-601.2357177734376	
